<svg width="24" height="24" viewBox="0 0 24 24" fill="none" xmlns="http://www.w3.org/2000/svg">
<path fill-rule="evenodd" clip-rule="evenodd" d="M11 11.9998C11 14.209 9.20914 15.9998 7 15.9998C4.79086 15.9998 3 14.209 3 11.9998C3 9.79071 4.79086 7.99985 7 7.99985C7.99263 7.99985 8.90081 8.36142 9.60003 8.96004C9.603 8.95282 9.60598 8.94559 9.60896 8.93838C9.86586 8.31818 10.1992 7.7342 10.6002 7.19957C9.59738 6.44624 8.35082 5.99985 7 5.99985C3.68629 5.99985 1 8.68614 1 11.9998C1 15.3136 3.68629 17.9998 7 17.9998C10.3137 17.9998 13 15.3136 13 11.9998H11ZM8.5 12C8.5 12.8284 7.82843 13.5 7 13.5C6.17157 13.5 5.5 12.8284 5.5 12C5.5 11.1716 6.17157 10.5 7 10.5C7.82843 10.5 8.5 11.1716 8.5 12Z" fill="#E5353E"/>
<path fill-rule="evenodd" clip-rule="evenodd" d="M17.0001 18C20.3138 18 23.0002 15.3137 23.0002 12C23.0002 8.68629 20.3138 6 17.0001 6C13.6863 6 11 8.68629 11 12H13C13 9.79086 14.7909 8 17 8C19.2091 8 21 9.79086 21 12C21 14.2091 19.2091 16 17 16C16.0074 16 15.0992 15.6384 14.4 15.0398C14.1435 15.6642 13.808 16.2561 13.3998 16.8003C14.4027 17.5536 15.6492 18 17.0001 18ZM18.5 12C18.5 12.8284 17.8284 13.5 17 13.5C16.1716 13.5 15.5 12.8284 15.5 12C15.5 11.1716 16.1716 10.5 17 10.5C17.8284 10.5 18.5 11.1716 18.5 12Z" fill="#E5353E"/>
<circle opacity="0.1" cx="17" cy="12" r="3" fill="#E5353E"/>
</svg>
