<svg width="24" height="24" viewBox="0 0 24 24" fill="none" xmlns="http://www.w3.org/2000/svg">
<g clip-path="url(#clip0_6528_176422)">
<path d="M18.2926 2.94505C18.2187 2.80045 18.1475 2.6764 18.0842 2.57367C17.9743 2.58055 17.8465 2.591 17.7028 2.60672C17.1377 2.66852 16.3303 2.81124 15.3925 3.13586C13.5266 3.78174 11.1227 5.15386 9.06325 8.09605C6.96815 11.0892 5.831 14.482 5.22014 17.1543C4.98393 18.1877 4.82811 19.1059 4.72595 19.841L5.22857 18.8399C5.74237 17.8166 6.7736 17.2117 7.8604 17.1587C10.5898 17.0256 13.3582 16.3553 15.3292 14.0812C18.6676 10.2292 19.1722 7.20379 18.9616 5.23734C18.8543 4.23573 18.5568 3.46165 18.2926 2.94505ZM17.8354 2.21552L17.8367 2.21703C17.836 2.21616 17.8355 2.21561 17.8353 2.21537C17.8351 2.21514 17.8351 2.21519 17.8354 2.21552Z" stroke="#E5353E" stroke-width="2"/>
<path opacity="0.1" d="M18.5 9C11.3 6.6 9 10 5.5 19C6.5 18 9.33333 17.5 12 16.5C15.2 15.3 17.5 11.1667 18.5 9Z" fill="#E5353E"/>
</g>
<defs>
<clipPath id="clip0_6528_176422">
<rect width="24" height="24" fill="white"/>
</clipPath>
</defs>
</svg>
