<svg width="24" height="24" viewBox="0 0 24 24" fill="none" xmlns="http://www.w3.org/2000/svg">
<path d="M2.79663 9.93677L2.12319 15.0624C2.05792 15.5592 2.44459 16 2.94564 16H11.5C12.3284 16 13 16.6716 13 17.5C13 18.3284 12.3284 19 11.5 19H10.5C9.67157 19 9 19.6716 9 20.5C9 21.3284 9.67157 22 10.5 22H19.2547C20.1986 22 20.945 21.2005 20.8802 20.2588L20.0562 8.2848C19.9763 7.12346 19.0109 6.22222 17.8468 6.22222C16.829 6.22222 15.9423 6.91596 15.6973 7.90384L14.6948 11.9469C14.668 12.0551 14.5118 12.0478 14.4952 11.9376L13.2985 3.98413C13.1269 2.84356 12.1469 2 10.9935 2C9.84577 2 8.86883 2.83554 8.69082 3.96942L7.39059 12.2515C7.37776 12.3332 7.26471 12.3445 7.23599 12.2669L6.23017 9.55062C5.97162 8.85238 5.30575 8.38889 4.56119 8.38889C3.66789 8.38889 2.913 9.05109 2.79663 9.93677Z" stroke="#E5353E" stroke-width="2"/>
<path opacity="0.1" d="M10 16C10 8.50001 12 4.50001 13 2.50001C10.5 1.00001 9.5 2.50001 9 3.00001C8.6 3.40001 7.5 8.50001 7 11L6.5 9.50001C4.9 7.90001 3.5 8.83335 3 9.50001L2.5 16H10Z" fill="#E5353E"/>
</svg>
