<svg width="24" height="24" viewBox="0 0 24 24" fill="none" xmlns="http://www.w3.org/2000/svg">
<path d="M5.66669 6.84846C5.66669 5.44725 5.19744 4.09441 4.34597 3.00005L13.3335 3.00002C16.0949 3.00001 18.3335 5.23859 18.3335 8.00002V16.8889C18.3335 18.3518 19.4643 19.5506 20.8995 19.6587C20.6395 20.4381 19.9039 21 19.037 21H10.6667C7.90526 21 5.66669 18.7614 5.66669 16V6.84846Z" stroke="#E5353E" stroke-width="2"/>
<path d="M10.7333 10H5C5.42667 10.7333 5.53333 11.2474 5.53333 11.4128V18.25C5.53333 19.7167 9.66667 21 15 21C13.72 21 12.8667 19.9352 12.8667 18V11.5278C12.8667 10.3056 11.4444 10 10.7333 10Z" fill="#E5353E" fill-opacity="0.1"/>
<path d="M10 8H14M10 12H14" stroke="#E5353E" stroke-width="2" stroke-linecap="round" stroke-linejoin="round"/>
</svg>
