<svg width="24" height="24" viewBox="0 0 24 24" fill="none" xmlns="http://www.w3.org/2000/svg">
<path opacity="0.1" d="M12.5 15L15 8.5L17.5 10.5L20.5 14.5L20 17.5L17.5 19.5H3.5L5.5 17L12.5 15Z" fill="#E5353E"/>
<path fill-rule="evenodd" clip-rule="evenodd" d="M18.7566 2.5H6.61967L9.47515 5.03848L7.70907 5.54307L10.7499 8.20377V8.60408L10.1784 8.21306C8.27061 6.90775 5.68417 7.26018 4.1952 9.02833L0.979004 12.8476L4.78066 13.14L3.87104 15.2624L11.1581 14.1414C11.2063 14.2951 11.2598 14.4457 11.3191 14.5936C7.86457 14.8877 5.60407 15.7418 4.15013 16.625C3.32133 17.1285 2.76525 17.6351 2.4063 18.0376C1.83134 18.6821 1.49335 19.37 1.13184 20.25H16.9999C19.4852 20.25 21.4999 18.2353 21.4999 15.75V15.2587C21.4999 14.0206 20.9898 12.8372 20.0897 11.9871L18.5151 10.5H18.6987C19.8851 10.5 20.9603 9.80128 21.4421 8.7171C21.8794 7.73325 21.7564 6.59059 21.1197 5.72238L18.7566 2.5ZM10.8055 12.1721C10.777 11.8115 10.7612 11.4321 10.7542 11.0304L9.04901 9.86367C7.98914 9.1385 6.55223 9.33429 5.72502 10.3166L5.02104 11.1526L7.71939 11.3601L7.12901 12.7377L10.8055 12.1721ZM12.7499 7.29623L11.7907 6.45693L13.5244 5.96159L11.8801 4.5H17.7431L19.5069 6.90511C19.7194 7.19494 19.7605 7.57639 19.6145 7.90482C19.4537 8.26675 19.0947 8.5 18.6987 8.5H17.9141L17.1641 7.75H14.9999V9.93105L18.7164 13.4411C19.2165 13.9134 19.4999 14.5708 19.4999 15.2587V15.75C19.4999 17.1307 18.3806 18.25 16.9999 18.25H5.3307C6.66712 17.4758 9.00337 16.631 12.9302 16.5026C13.73 16.4765 14.2871 15.5323 13.7293 14.8099C12.9923 13.8553 12.7499 12.7982 12.7499 10.5V7.29623Z" fill="#E5353E"/>
<path d="M17.3962 6.15944C17.272 6.55462 16.8511 6.77436 16.4559 6.65024C16.0607 6.52612 15.841 6.10514 15.9651 5.70996L17.3962 6.15944Z" fill="#E5353E"/>
</svg>
