<svg width="24" height="24" viewBox="0 0 24 24" fill="none" xmlns="http://www.w3.org/2000/svg">
<path d="M8.67877 20.5334C8.40263 21.0117 7.79104 21.1755 7.31275 20.8994L6.17609 20.2431C5.6978 19.967 5.53392 19.3554 5.81006 18.8771L7.83551 15.3689L9.26987 16.1971L10.7042 17.0252L8.67877 20.5334Z" stroke="#E5353E" stroke-width="2"/>
<mask id="path-2-inside-1_6528_176498" fill="white">
<path fill-rule="evenodd" clip-rule="evenodd" d="M14.8053 20.5323C15.5413 20.9572 16.4823 20.7051 16.9073 19.9691L16.9724 19.8562C17.1321 19.5797 17.1769 19.2516 17.0973 18.9423C16.9502 18.3708 16.4151 17.9866 15.8265 18.03L14.9211 18.0967L13.9619 17.5428L19.7965 9.12207C20.1763 8.5739 20.2579 7.87248 20.0141 7.25175L18.3377 2.98417C17.9967 2.11611 17.101 1.59897 16.1787 1.73767L11.6446 2.41959C10.9851 2.51877 10.4184 2.94016 10.1336 3.54321L5.75842 12.8066L4.79947 12.2529L4.40454 11.4355C4.14782 10.9041 3.54751 10.6328 2.97902 10.7911C2.6714 10.8768 2.40966 11.0797 2.25 11.3562L2.18484 11.4691C1.75992 12.2051 2.01208 13.1462 2.74806 13.5711L14.8053 20.5323Z"/>
</mask>
<path d="M16.9073 19.9691L15.1752 18.9691L15.1752 18.9691L16.9073 19.9691ZM14.8053 20.5323L13.8053 22.2644L14.8053 20.5323ZM16.9724 19.8562L18.7045 20.8562L18.7045 20.8562L16.9724 19.8562ZM17.0973 18.9423L19.0342 18.4437L19.0342 18.4437L17.0973 18.9423ZM15.8265 18.03L15.9734 20.0246H15.9734L15.8265 18.03ZM14.9211 18.0967L13.9211 19.8287L14.4542 20.1365L15.0681 20.0913L14.9211 18.0967ZM13.9619 17.5428L12.3179 16.4038L11.081 18.189L12.9619 19.2749L13.9619 17.5428ZM19.7965 9.12207L21.4405 10.2611H21.4405L19.7965 9.12207ZM20.0141 7.25175L18.1526 7.98301L18.1526 7.98301L20.0141 7.25175ZM18.3377 2.98417L16.4762 3.71543H16.4762L18.3377 2.98417ZM16.1787 1.73767L16.4762 3.71543H16.4762L16.1787 1.73767ZM11.6446 2.41959L11.3471 0.441827L11.3471 0.441829L11.6446 2.41959ZM10.1336 3.54321L11.942 4.39734L11.942 4.39734L10.1336 3.54321ZM5.75842 12.8066L4.75842 14.5386L6.63932 15.6246L7.56686 13.6607L5.75842 12.8066ZM4.79947 12.2529L2.99864 13.123L3.26641 13.6772L3.79947 13.985L4.79947 12.2529ZM4.40454 11.4355L2.60371 12.3055V12.3055L4.40454 11.4355ZM2.97902 10.7911L2.44238 8.86445L2.97902 10.7911ZM2.25 11.3562L0.517947 10.3562L0.51794 10.3563L2.25 11.3562ZM2.18484 11.4691L3.91689 12.4691L3.91689 12.4691L2.18484 11.4691ZM2.74806 13.5711L3.74806 11.839L2.74806 13.5711ZM15.1752 18.9691C15.3026 18.7485 15.5847 18.6729 15.8053 18.8003L13.8053 22.2644C15.4978 23.2416 17.6621 22.6617 18.6393 20.9691L15.1752 18.9691ZM15.2404 18.8562L15.1752 18.9691L18.6393 20.9691L18.7045 20.8562L15.2404 18.8562ZM15.1605 19.4409C15.1095 19.2431 15.1382 19.0332 15.2404 18.8562L18.7045 20.8562C19.1259 20.1262 19.2443 19.2601 19.0342 18.4437L15.1605 19.4409ZM15.9734 20.0246C15.5969 20.0523 15.2546 19.8065 15.1605 19.4409L19.0342 18.4437C18.6458 16.9351 17.2332 15.9209 15.6796 16.0354L15.9734 20.0246ZM15.0681 20.0913L15.9734 20.0246L15.6796 16.0354L14.7742 16.1021L15.0681 20.0913ZM12.9619 19.2749L13.9211 19.8287L15.9211 16.3646L14.9619 15.8108L12.9619 19.2749ZM18.1526 7.98301L12.3179 16.4038L15.6058 18.6819L21.4405 10.2611L18.1526 7.98301ZM18.1526 7.98301L18.1526 7.98301L21.4405 10.2611C22.2001 9.16479 22.3633 7.76194 21.8756 6.52049L18.1526 7.98301ZM16.4762 3.71543L18.1526 7.98301L21.8756 6.52049L20.1992 2.25291L16.4762 3.71543ZM16.4762 3.71543H16.4762L20.1992 2.25291C19.5172 0.516795 17.7258 -0.517495 15.8813 -0.240086L16.4762 3.71543ZM11.942 4.39734L16.4762 3.71543L15.8813 -0.240086L11.3471 0.441827L11.942 4.39734ZM11.942 4.39734H11.942L11.3471 0.441829C10.0281 0.640203 8.89477 1.48298 8.32513 2.68907L11.942 4.39734ZM7.56686 13.6607L11.942 4.39734L8.32513 2.68907L3.94998 11.9524L7.56686 13.6607ZM3.79947 13.985L4.75842 14.5386L6.75842 11.0745L5.79947 10.5209L3.79947 13.985ZM2.60371 12.3055L2.99864 13.123L6.60031 11.3829L6.20538 10.5654L2.60371 12.3055ZM3.51566 12.7178C3.15198 12.8191 2.76794 12.6455 2.60371 12.3055L6.20538 10.5654C5.5277 9.16278 3.94304 8.44647 2.44238 8.86445L3.51566 12.7178ZM3.98204 12.3562C3.8799 12.5332 3.71246 12.663 3.51566 12.7178L2.44238 8.86445C1.63035 9.09063 0.939414 9.62624 0.517947 10.3562L3.98204 12.3562ZM3.91689 12.4691L3.98205 12.3562L0.51794 10.3563L0.452781 10.4691L3.91689 12.4691ZM3.74806 11.839C3.96867 11.9664 4.04425 12.2485 3.91689 12.4691L0.452785 10.4691C-0.524415 12.1617 0.0554993 14.3259 1.74806 15.3031L3.74806 11.839ZM15.8053 18.8003L3.74806 11.839L1.74806 15.3031L13.8053 22.2644L15.8053 18.8003Z" fill="#E5353E" mask="url(#path-2-inside-1_6528_176498)"/>
<path opacity="0.1" d="M14 8L9.5 16L12.5 18L19 8H14Z" fill="#E5353E"/>
</svg>
