<svg width="24" height="24" viewBox="0 0 24 24" fill="none" xmlns="http://www.w3.org/2000/svg">
<mask id="path-1-inside-1_6528_176446" fill="white">
<path fill-rule="evenodd" clip-rule="evenodd" d="M18.997 2.70583C19.0347 3.08853 19.1285 3.48722 19.3926 3.76676C21.2478 5.73051 21.7808 8.53364 20.5083 10.7377C20.0992 11.4463 19.5431 12.0242 18.8896 12.4615C18.4031 12.787 18.1702 13.4186 18.3725 13.9679C19.0813 15.8919 19.0233 17.937 18.0301 19.6572C16.0232 23.1332 10.9581 23.966 6.71679 21.5173C2.47549 19.0686 0.66413 14.2657 2.67101 10.7896C3.66408 9.0696 5.406 7.99677 7.42639 7.6485C8.0032 7.54907 8.4337 7.03151 8.47232 6.44747C8.52421 5.66273 8.74671 4.8921 9.15587 4.1834C10.3825 2.05874 12.9302 1.10875 15.4665 1.60266C15.8437 1.67612 16.2305 1.54256 16.574 1.3702C17.0614 1.12558 17.6586 1.12312 18.1663 1.41621C18.6532 1.69737 18.9459 2.18587 18.997 2.70583Z"/>
</mask>
<path d="M18.8896 12.4615L17.7774 10.7993L18.8896 12.4615ZM18.3725 13.9679L20.2492 13.2765L18.3725 13.9679ZM7.42639 7.6485L7.76613 9.61943L7.42639 7.6485ZM18.997 2.70583L17.0066 2.90164L18.997 2.70583ZM22.2403 11.7377C24.0359 8.62774 23.1898 4.87381 20.8465 2.39332L17.9388 5.14019C19.3058 6.58722 19.5257 8.43954 18.7762 9.73771L22.2403 11.7377ZM20.0018 14.1237C20.8992 13.5233 21.6717 12.7226 22.2403 11.7377L18.7762 9.73771C18.5266 10.17 18.1871 10.5252 17.7774 10.7993L20.0018 14.1237ZM19.7622 20.6572C21.1 18.3401 21.1279 15.6617 20.2492 13.2765L16.4958 14.6592C17.0347 16.122 16.9466 17.5339 16.2981 18.6572L19.7622 20.6572ZM5.71679 23.2494C10.5764 26.0551 17.0261 25.3962 19.7622 20.6572L16.2981 18.6572C15.0203 20.8703 11.3397 21.877 7.71679 19.7853L5.71679 23.2494ZM0.938955 9.78965C-1.79708 14.5286 0.857136 20.4436 5.71679 23.2494L7.71679 19.7853C4.09384 17.6936 3.12534 14.0027 4.40306 11.7896L0.938955 9.78965ZM7.08665 5.67757C4.58194 6.10932 2.27662 7.47274 0.938955 9.78965L4.40306 11.7896C5.05153 10.6665 6.23006 9.88422 7.76613 9.61943L7.08665 5.67757ZM7.42382 3.1834C6.85513 4.16841 6.54793 5.23795 6.47668 6.3155L10.468 6.57944C10.5005 6.0875 10.6383 5.61578 10.8879 5.1834L7.42382 3.1834ZM15.8487 -0.360463C12.6344 -0.986425 9.1536 0.187338 7.42382 3.1834L10.8879 5.1834C11.6115 3.93015 13.226 3.20393 15.0842 3.56578L15.8487 -0.360463ZM17.471 3.15775C17.3826 3.20211 17.2657 3.20567 17.1663 3.14826L19.1663 -0.315845C18.0515 -0.959432 16.7403 -0.950945 15.677 -0.417348L17.471 3.15775ZM17.1663 3.14826C17.0712 3.09335 17.0159 2.99591 17.0066 2.90164L20.9874 2.51002C20.8758 1.37584 20.2353 0.301381 19.1663 -0.315845L17.1663 3.14826ZM15.0842 3.56578C16.1384 3.77109 17.0329 3.37759 17.471 3.15775L15.677 -0.417348C15.6321 -0.394815 15.5992 -0.380379 15.5765 -0.371427C15.5536 -0.362422 15.5478 -0.361702 15.5571 -0.363971C15.5737 -0.36803 15.6839 -0.392569 15.8487 -0.360463L15.0842 3.56578ZM17.7774 10.7993C16.5898 11.5939 15.9472 13.1699 16.4958 14.6592L20.2492 13.2765C20.3229 13.4765 20.306 13.6617 20.26 13.7928C20.2152 13.9205 20.1301 14.0379 20.0018 14.1237L17.7774 10.7993ZM7.76613 9.61943C9.33023 9.34982 10.3737 8.00522 10.468 6.57944L6.47668 6.3155C6.48686 6.16144 6.54596 6.02905 6.63412 5.92643C6.72469 5.82101 6.8766 5.71378 7.08665 5.67757L7.76613 9.61943ZM20.8465 2.39332C20.9622 2.51585 21.0006 2.6226 21.0061 2.63911C21.0092 2.64832 21.0068 2.64319 21.0022 2.61915C20.9976 2.59526 20.9923 2.55991 20.9874 2.51002L17.0066 2.90164C17.0547 3.39014 17.2 4.35817 17.9388 5.14019L20.8465 2.39332Z" fill="#E5353E" mask="url(#path-1-inside-1_6528_176446)"/>
<path d="M11 10C11.8889 10.8 13.1667 11.6 14.5 12" stroke="#E5353E" stroke-width="2" stroke-linecap="round" stroke-linejoin="round"/>
<path opacity="0.1" d="M18 18.5C18 20.9853 14 22 14 22C14 22 11.4442 22.6254 10.6713 22C9.65183 21.175 9 19.9136 9 18.5C9 16.0147 11.0147 14 13.5 14C15.9853 14 18 16.0147 18 18.5Z" fill="#E5353E"/>
</svg>
