<svg width="24" height="24" viewBox="0 0 24 24" fill="none" xmlns="http://www.w3.org/2000/svg">
<g clip-path="url(#clip0_6528_176330)">
<path d="M7 7C7 5.34315 8.34315 4 10 4H14.5C16.1568 4 17.5 5.34315 17.5 7V8H7V7Z" stroke="#E5353E" stroke-width="2" stroke-linecap="round" stroke-linejoin="round"/>
<path d="M2 12.5L11.7575 14.9394C11.9167 14.9792 12.0833 14.9792 12.2425 14.9394L22 12.5V19C22 19.5523 21.5523 20 21 20H3C2.44771 20 2 19.5523 2 19V12.5Z" fill="#E5353E" fill-opacity="0.1" stroke="#E5353E" stroke-width="2" stroke-linecap="round" stroke-linejoin="round"/>
<path d="M22 13.5V9C22 8.4477 21.5523 8 21 8H3C2.44771 8 2 8.4477 2 9V13.5" stroke="#E5353E" stroke-width="2" stroke-linecap="round" stroke-linejoin="round"/>
</g>
<defs>
<clipPath id="clip0_6528_176330">
<rect width="24" height="24" fill="white"/>
</clipPath>
</defs>
</svg>
