<svg width="24" height="24" viewBox="0 0 24 24" fill="none" xmlns="http://www.w3.org/2000/svg">
<path d="M11.6133 2.71923L11.6133 2.71922C11.662 2.68534 11.767 2.61626 11.8823 2.55943C11.9297 2.53606 11.9694 2.51947 12 2.50878C12.0306 2.51947 12.0703 2.53606 12.1177 2.55943C12.233 2.61626 12.338 2.68534 12.3867 2.71922L12.9578 1.89837L12.3867 2.71923C12.4423 2.75792 12.511 2.80161 12.5919 2.84291C14.9886 4.06549 16.3609 6.6599 16.0229 9.32903L15.0598 16.9326C14.9933 17.4577 15.1377 17.9877 15.4612 18.4065L16 19.1039L16 20.6891C13.8331 21.1036 10.1669 21.1036 7.99998 20.6891V19.104L8.53873 18.4066C8.86231 17.9877 9.00666 17.4577 8.94015 16.9326L7.97711 9.32902C7.63905 6.6599 9.0114 4.06549 11.408 2.84291L10.957 1.95886L11.408 2.84291C11.489 2.80161 11.5577 2.75792 11.6133 2.71923Z" stroke="#E5353E" stroke-width="2"/>
<path fill-rule="evenodd" clip-rule="evenodd" d="M15.7248 14.9334H15.7758C15.8252 14.9334 15.8745 14.937 15.9234 14.9443L21.8524 15.8288C22.4568 15.919 23 15.4508 23 14.8398V11.3412C23 10.9336 22.7526 10.5667 22.3746 10.414L16.5802 8.07284C16.4938 8.03791 16.403 8.01531 16.3107 8.00555C16.3106 8.21761 16.3013 8.43076 16.2823 8.64447L16.1569 10.0589L21 12.0157V13.6795L16.2185 12.9662C16.1135 12.9505 16.0078 12.9405 15.9018 12.936L15.7248 14.9334ZM7.84428 10.0725C7.7711 10.0927 7.69899 10.1171 7.62832 10.1457L3 12.0157V13.6795L7.78153 12.9662C7.8865 12.9505 7.99219 12.9405 8.09816 12.936L8.27524 14.9334H8.22418C8.1748 14.9334 8.12548 14.937 8.07663 14.9443L2.14755 15.8288C1.54319 15.919 1 15.4508 1 14.8398V11.3412C1 10.9336 1.24743 10.5667 1.62538 10.414L6.87909 8.29133C7.14092 8.18554 7.41262 8.10802 7.68955 8.05966C7.69103 8.25386 7.70035 8.44893 7.71768 8.64447L7.84428 10.0725Z" fill="#E5353E"/>
<path d="M13 9.27273C13 10.779 12.5523 12 12 12C11.4477 12 11 10.779 11 9.27273C11 7.7665 11.4477 7 12 7C12.5523 7 13 7.7665 13 9.27273Z" fill="#E5353E" fill-opacity="0.1"/>
</svg>
